<svg width="16" height="17" viewBox="0 0 16 17" fill="none" xmlns="http://www.w3.org/2000/svg">
<path d="M14.0001 14.5L11.1048 11.6047M11.1048 11.6047C11.6001 11.1094 11.9929 10.5215 12.261 9.87438C12.529 9.22729 12.6669 8.53375 12.6669 7.83335C12.6669 7.13295 12.529 6.4394 12.261 5.79232C11.9929 5.14523 11.6001 4.55727 11.1048 4.06202C10.6095 3.56676 10.0216 3.1739 9.3745 2.90586C8.72742 2.63783 8.03387 2.49988 7.33347 2.49988C6.63307 2.49988 5.93953 2.63783 5.29244 2.90586C4.64535 3.1739 4.0574 3.56676 3.56214 4.06202C2.56192 5.06224 2 6.41882 2 7.83335C2 9.24787 2.56192 10.6045 3.56214 11.6047C4.56236 12.6049 5.91895 13.1668 7.33347 13.1668C8.748 13.1668 10.1046 12.6049 11.1048 11.6047Z" stroke="#B7B7B7" stroke-width="2.5" stroke-linecap="round" stroke-linejoin="round"/>
</svg>
